<svg width="23" height="25" viewBox="0 0 23 25" fill="none" xmlns="http://www.w3.org/2000/svg">
<g clip-path="url(#clip0_203_449)">
<path d="M15.1003 21.78C13.5903 21.78 12.1203 21.32 10.8603 20.45C8.14034 18.58 6.97034 15.1 8.02034 11.98C8.07034 11.82 8.13034 11.67 8.19034 11.51C8.97034 9.61 8.51034 7.43 7.04034 6.01C6.04034 5.04 5.71034 3.57 6.20034 2.27C6.74034 0.87 8.00034 0 9.49034 0C10.1303 0 10.7603 0.18 11.3103 0.51C12.1903 1.05 12.7903 1.94 12.9503 2.95C13.2703 4.97 14.7903 6.59 16.7803 7.04C18.7703 7.49 20.4803 8.74 21.7203 10.65C22.2903 11.53 22.6103 12.52 22.6303 13.53C22.6903 15.87 21.9203 18 20.4403 19.51C19.0503 20.94 17.1003 21.76 15.0903 21.76L15.1003 21.78Z" fill="black"/>
<path d="M5.04012 24.31C3.31012 24.31 1.68012 23.42 0.780119 21.98C-0.00988138 20.71 -0.209881 19.18 0.260119 17.76C0.730119 16.34 1.79012 15.21 3.19012 14.66C3.76012 14.43 4.36012 14.32 4.98012 14.32C6.31012 14.32 7.58012 13.44 7.95012 12.16C8.64012 9.80002 10.4801 7.92002 12.8801 7.13002C13.6101 6.89002 14.3701 6.77002 15.1501 6.77002C17.3601 6.77002 19.5001 7.77002 20.8901 9.44002C22.5001 11.38 23.0501 13.97 22.3601 16.36C21.6701 18.75 19.8301 20.65 17.4301 21.43C16.7001 21.67 15.9401 21.79 15.1601 21.79C14.2501 21.79 13.3601 21.62 12.4901 21.29C12.1401 21.16 11.7801 21.1 11.4301 21.1C10.5001 21.1 9.60012 21.53 9.03012 22.31C8.48012 23.05 7.72012 23.62 6.85012 23.97C6.28012 24.2 5.68012 24.31 5.06012 24.31H5.04012Z" fill="black"/>
</g>
<defs>
<clipPath id="clip0_203_449">
<rect width="22.65" height="24.31" fill="white"/>
</clipPath>
</defs>
</svg>
